<svg xmlns="http://www.w3.org/2000/svg" viewBox="0 0 64 64" width="64" height="64" fill="none" role="img" aria-label="Aura">
  <g id="mark" fill="currentColor" stroke="currentColor" stroke-linecap="round">
    <line x1="32" y1="18.89" x2="32" y2="8.77" stroke-width="1.2"></line>
    <line x1="33.87" y1="19.03" x2="34.8" y2="12.54" stroke-width="0.78"></line>
    <line x1="35.69" y1="19.42" x2="37.54" y2="13.14" stroke-width="0.78"></line>
    <line x1="37.44" y1="20.08" x2="40.17" y2="14.12" stroke-width="0.78"></line>
    <line x1="39.09" y1="20.97" x2="44.56" y2="12.45" stroke-width="1.2"></line>
    <line x1="40.58" y1="22.09" x2="44.87" y2="17.14" stroke-width="0.78"></line>
    <line x1="41.91" y1="23.42" x2="46.86" y2="19.13" stroke-width="0.78"></line>
    <line x1="43.03" y1="24.91" x2="48.54" y2="21.37" stroke-width="0.78"></line>
    <line x1="43.92" y1="26.56" x2="53.13" y2="22.35" stroke-width="1.2"></line>
    <line x1="44.58" y1="28.31" x2="50.86" y2="26.46" stroke-width="0.78"></line>
    <line x1="44.97" y1="30.13" x2="51.46" y2="29.2" stroke-width="0.78"></line>
    <line x1="45.11" y1="32" x2="51.66" y2="32" stroke-width="0.78"></line>
    <line x1="44.97" y1="33.87" x2="55" y2="35.31" stroke-width="1.2"></line>
    <line x1="44.58" y1="35.69" x2="50.86" y2="37.54" stroke-width="0.78"></line>
    <line x1="43.92" y1="37.44" x2="49.88" y2="40.17" stroke-width="0.78"></line>
    <line x1="43.03" y1="39.09" x2="48.54" y2="42.63" stroke-width="0.78"></line>
    <line x1="41.91" y1="40.58" x2="49.56" y2="47.22" stroke-width="1.2"></line>
    <line x1="40.58" y1="41.91" x2="44.87" y2="46.86" stroke-width="0.78"></line>
    <line x1="39.09" y1="43.03" x2="42.63" y2="48.54" stroke-width="0.78"></line>
    <line x1="37.44" y1="43.92" x2="40.17" y2="49.88" stroke-width="0.78"></line>
    <line x1="35.69" y1="44.58" x2="38.55" y2="54.29" stroke-width="1.2"></line>
    <line x1="33.87" y1="44.97" x2="34.8" y2="51.46" stroke-width="0.78"></line>
    <line x1="32" y1="45.11" x2="32" y2="51.66" stroke-width="0.78"></line>
    <line x1="30.13" y1="44.97" x2="29.2" y2="51.46" stroke-width="0.78"></line>
    <line x1="28.31" y1="44.58" x2="25.45" y2="54.29" stroke-width="1.2"></line>
    <line x1="26.56" y1="43.92" x2="23.83" y2="49.88" stroke-width="0.78"></line>
    <line x1="24.91" y1="43.03" x2="21.37" y2="48.54" stroke-width="0.78"></line>
    <line x1="23.42" y1="41.91" x2="19.13" y2="46.86" stroke-width="0.78"></line>
    <line x1="22.09" y1="40.58" x2="14.44" y2="47.22" stroke-width="1.2"></line>
    <line x1="20.97" y1="39.09" x2="15.46" y2="42.63" stroke-width="0.78"></line>
    <line x1="20.08" y1="37.44" x2="14.12" y2="40.17" stroke-width="0.78"></line>
    <line x1="19.42" y1="35.69" x2="13.14" y2="37.54" stroke-width="0.78"></line>
    <line x1="19.03" y1="33.87" x2="9" y2="35.31" stroke-width="1.2"></line>
    <line x1="18.89" y1="32" x2="12.34" y2="32" stroke-width="0.78"></line>
    <line x1="19.03" y1="30.13" x2="12.54" y2="29.2" stroke-width="0.78"></line>
    <line x1="19.42" y1="28.31" x2="13.14" y2="26.46" stroke-width="0.78"></line>
    <line x1="20.08" y1="26.56" x2="10.87" y2="22.35" stroke-width="1.2"></line>
    <line x1="20.97" y1="24.91" x2="15.46" y2="21.37" stroke-width="0.78"></line>
    <line x1="22.09" y1="23.42" x2="17.14" y2="19.13" stroke-width="0.78"></line>
    <line x1="23.42" y1="22.09" x2="19.13" y2="17.14" stroke-width="0.78"></line>
    <line x1="24.91" y1="20.97" x2="19.44" y2="12.45" stroke-width="1.2"></line>
    <line x1="26.56" y1="20.08" x2="23.83" y2="14.12" stroke-width="0.78"></line>
    <line x1="28.31" y1="19.42" x2="26.46" y2="13.14" stroke-width="0.78"></line>
    <line x1="30.13" y1="19.03" x2="29.2" y2="12.54" stroke-width="0.78"></line>
    <circle cx="32" cy="32" r="6.85" stroke="none"></circle>
  </g>
  <g id="tick-live" stroke="#36C5B0" fill="#36C5B0" stroke-linecap="round">
    <line x1="40.07" y1="21.67" x2="49.24" y2="9.94" stroke-width="1.55"></line>
    <circle cx="49.24" cy="9.94" r="1.61"></circle>
  </g>
</svg>