<svg xmlns="http://www.w3.org/2000/svg" viewBox="0 0 64 64" width="64" height="64" fill="none" role="img" aria-label="Aura">
  <style>
    #mark { fill: #1B1712; stroke: #1B1712; }
    @media (prefers-color-scheme: dark) {
      #mark { fill: #E8EDF3; stroke: #E8EDF3; }
    }
  </style>
  <g id="mark" fill="currentColor" stroke="currentColor" stroke-linecap="round">
    <line x1="32" y1="18" x2="32" y2="7.5" stroke-width="2"></line>
    <line x1="36.33" y1="18.69" x2="38.49" y2="12.03" stroke-width="1.3"></line>
    <line x1="40.23" y1="20.67" x2="44.34" y2="15.01" stroke-width="1.3"></line>
    <line x1="43.33" y1="23.77" x2="48.99" y2="19.66" stroke-width="1.3"></line>
    <line x1="45.31" y1="27.67" x2="51.97" y2="25.51" stroke-width="1.3"></line>
    <line x1="46" y1="32" x2="56.5" y2="32" stroke-width="2"></line>
    <line x1="45.31" y1="36.33" x2="51.97" y2="38.49" stroke-width="1.3"></line>
    <line x1="43.33" y1="40.23" x2="48.99" y2="44.34" stroke-width="1.3"></line>
    <line x1="40.23" y1="43.33" x2="44.34" y2="48.99" stroke-width="1.3"></line>
    <line x1="36.33" y1="45.31" x2="38.49" y2="51.97" stroke-width="1.3"></line>
    <line x1="32" y1="46" x2="32" y2="56.5" stroke-width="2"></line>
    <line x1="27.67" y1="45.31" x2="25.51" y2="51.97" stroke-width="1.3"></line>
    <line x1="23.77" y1="43.33" x2="19.66" y2="48.99" stroke-width="1.3"></line>
    <line x1="20.67" y1="40.23" x2="15.01" y2="44.34" stroke-width="1.3"></line>
    <line x1="18.69" y1="36.33" x2="12.03" y2="38.49" stroke-width="1.3"></line>
    <line x1="18" y1="32" x2="7.5" y2="32" stroke-width="2"></line>
    <line x1="18.69" y1="27.67" x2="12.03" y2="25.51" stroke-width="1.3"></line>
    <line x1="20.67" y1="23.77" x2="15.01" y2="19.66" stroke-width="1.3"></line>
    <line x1="23.77" y1="20.67" x2="19.66" y2="15.01" stroke-width="1.3"></line>
    <line x1="27.67" y1="18.69" x2="25.51" y2="12.03" stroke-width="1.3"></line>
    <circle cx="32" cy="32" r="8.2" stroke="none"></circle>
  </g>
  <g id="tick-live" stroke="#36C5B0" fill="#36C5B0" stroke-linecap="round">
    <line x1="40.23" y1="20.67" x2="48.75" y2="8.94" stroke-width="2.2"></line>
    <circle cx="48.75" cy="8.94" r="2.4"></circle>
  </g>
</svg>